<?xml version="1.0" encoding="utf-8"?>
<!-- Generator: Adobe Illustrator 24.3.0, SVG Export Plug-In . SVG Version: 6.00 Build 0)  -->
<svg version="1.1" id="Layer_1" xmlns="http://www.w3.org/2000/svg" xmlns:xlink="http://www.w3.org/1999/xlink" x="0px" y="0px"
	 viewBox="0 0 1433 1074" style="enable-background:new 0 0 1433 1074;" xml:space="preserve">
<style type="text/css">
	.st0{fill:#FFFFFF;}
	.st1{fill:#008080;}
	.st2{fill:#DFF7EF;}
	.st3{fill:#B7EDDC;}
	.st4{fill:#F8AE95;}
	.st5{fill:none;stroke:#F8AE95;stroke-width:42;stroke-miterlimit:10;}
	.st6{fill:none;stroke:#B7EDDC;stroke-width:42;stroke-miterlimit:10;}
	.st7{fill:#FDD8C6;}
	.st8{fill:#FCFFFF;}
	.st9{fill:#0E0A59;stroke:#FFFFFF;stroke-miterlimit:10;}
	.st10{fill:#008080;stroke:#FFFFFF;stroke-miterlimit:10;}
	.st11{fill:#FDBFA5;}
</style>
<rect class="st0" width="1433" height="1074"/>
<path class="st3" d="M537.18,0H0v111.21C68.89,161.58,124.09,234.94,130,242c179.96,214.94,424.11-34.82,444.38-128.78
	C581.11,82,566.49,41.2,537.18,0z"/>
<path class="st3" d="M895.82,1074H1433V962.79c-68.89-50.38-124.09-123.74-130-130.79c-179.96-214.94-424.11,34.82-444.38,128.78
	C851.89,992,866.51,1032.8,895.82,1074z"/>
<path class="st1" d="M353.15,144.37c7.46-21.75-18.08-63.06-47.13-61.74c-18.05,0.82-39.14,18.16-39.02,39.84
	c0.13,22.98,24.02,36.48,39.02,39.84C323.39,166.19,347.56,160.66,353.15,144.37z"/>
<path class="st1" d="M1194.74,913.28c7.16-20.89-17.36-60.56-45.26-59.29c-17.34,0.78-37.59,17.44-37.48,38.26
	c0.12,22.06,23.06,35.03,37.48,38.26C1166.16,934.23,1189.37,928.92,1194.74,913.28z"/>
<path class="st4" d="M309.42,513.82c9.04-26.36-21.91-76.43-57.13-74.83c-21.88,0.99-47.44,22.02-47.3,48.28
	c0.16,27.85,29.11,44.21,47.3,48.28C273.36,540.27,302.65,533.57,309.42,513.82z"/>
<path class="st4" d="M1227.95,575.81c5.54-16.14-13.42-46.81-34.99-45.83c-13.4,0.61-29.06,13.48-28.97,29.57
	c0.1,17.05,17.83,27.08,28.97,29.57C1205.86,592,1223.81,587.9,1227.95,575.81z"/>
<path class="st4" d="M820.14,128.88c4.34-12.65-10.51-36.67-27.41-35.91c-10.5,0.48-22.77,10.56-22.7,23.17
	c0.07,13.36,13.97,21.22,22.7,23.17C802.83,141.57,816.89,138.35,820.14,128.88z"/>
<path class="st4" d="M704.42,994.48c3.32-9.69-8.05-28.1-21-27.51c-8.04,0.36-17.44,8.09-17.39,17.75
	c0.06,10.24,10.7,16.26,17.39,17.75C691.16,1004.2,701.93,1001.74,704.42,994.48z"/>
<path class="st4" d="M460,985.86c0,31.07-5.78,60.79-16.32,88.14H0V867.74c41.71-75.73,122.29-127.03,214.85-127.03
	C350.24,740.71,460,850.47,460,985.86z"/>
<path class="st1" d="M1433,0v361.06c-32.13,15.47-68.16,24.14-106.22,24.14c-135.39,0-245.14-109.76-245.14-245.15
	c0-52.07,16.24-100.35,43.93-140.05H1433z"/>
<path class="st4" d="M1234.2,248.02c27.31,9.37,79.19-22.7,77.54-59.19c-1.03-22.67-22.81-49.16-50.03-49.01
	c-28.85,0.16-45.81,30.16-50.03,49.01C1206.8,210.64,1213.74,241,1234.2,248.02z"/>
<path class="st1" d="M318.83,928.45c8.99-26.21-21.79-76-56.8-74.41c-21.76,0.98-47.18,21.89-47.03,48.01
	c0.15,27.69,28.94,43.96,47.03,48.01C282.96,954.74,312.09,948.08,318.83,928.45z"/>
</svg>
